<svg width="54" height="60" viewBox="0 0 54 60" fill="none" xmlns="http://www.w3.org/2000/svg">
<path fill-rule="evenodd" clip-rule="evenodd" d="M8.7135 5.99817C14.8458 4.4422 19.8844 2.76117 27 0C37.158 3.94177 43.0832 5.68225 54 8C54 39.5 47.2856 47.144 27 60C6.71442 47.144 0 39.5 0 8C1.61926 7.65619 3.12872 7.32513 4.55847 6.99768L15 35H39L40 32H19L14.5 20H40L38 25H20L21 28H42L46.5 16H13L8.7135 5.99817ZM20.5 40.5C20.5 41.8807 19.3807 43 18 43C16.6193 43 15.5 41.8807 15.5 40.5C15.5 39.1193 16.6193 38 18 38C19.3807 38 20.5 39.1193 20.5 40.5ZM38.5 40.5C38.5 41.8807 37.3807 43 36 43C34.6193 43 33.5 41.8807 33.5 40.5C33.5 39.1193 34.6193 38 36 38C37.3807 38 38.5 39.1193 38.5 40.5Z" fill="#005E8E"/>
</svg>
